<svg width="14" height="15" viewBox="0 0 14 15" fill="none" xmlns="http://www.w3.org/2000/svg">
<path d="M2.91333 13.5674C4.05916 13.5674 4.98804 12.6385 4.98804 11.4927C4.98804 10.3469 4.05916 9.418 2.91333 9.418C1.7675 9.418 0.838623 10.3469 0.838623 11.4927C0.838623 12.6385 1.7675 13.5674 2.91333 13.5674Z" fill="#D7E0FF" stroke="#4147D5" stroke-width="1.5" stroke-linecap="round" stroke-linejoin="round"/>
<path d="M11.0716 12.505C12.1958 12.505 13.1072 11.5937 13.1072 10.4694C13.1072 9.34523 12.1958 8.43387 11.0716 8.43387C9.94737 8.43387 9.03601 9.34523 9.03601 10.4694C9.03601 11.5937 9.94737 12.505 11.0716 12.505Z" fill="#D7E0FF" stroke="#4147D5" stroke-width="1.5" stroke-linecap="round" stroke-linejoin="round"/>
<path d="M13.1072 10.4826V5.11185M4.97705 6.98633L4.97705 11.4927" stroke="#4147D5" stroke-width="1.5" stroke-linecap="round" stroke-linejoin="round"/>
<path d="M4.97705 6.98582V5.0167C4.97705 4.11049 5.58566 3.31482 6.46363 3.09035C7.01911 2.94832 7.58278 2.80932 8.15446 2.67755C9.44266 2.38063 10.7104 2.13454 11.9346 1.89688C12.5891 1.76983 13.1072 2.22234 13.1072 2.88906V5.10418C12.9717 5.14036 12.8356 5.17675 12.699 5.21329C11.4943 5.53549 10.2467 5.86913 8.95853 6.16605C7.67034 6.46297 6.40263 6.70907 5.17843 6.94672C5.11117 6.95978 5.04404 6.97281 4.97705 6.98582Z" fill="white" stroke="#4147D5" stroke-width="1.5"/>
</svg>
